<?xml version="1.0" standalone="no"?>
<!DOCTYPE svg PUBLIC "-//W3C//DTD SVG 20010904//EN"
 "http://www.w3.org/TR/2001/REC-SVG-20010904/DTD/svg10.dtd">
<svg version="1.0" xmlns="http://www.w3.org/2000/svg"
 width="1080.000000pt" height="1080.000000pt" viewBox="0 0 1080.000000 1080.000000"
 preserveAspectRatio="xMidYMid meet">

<g transform="translate(0.000000,1080.000000) scale(0.100000,-0.100000)"
fill="#000000" stroke="none">
<path d="M5070 10728 c-63 -4 -155 -10 -205 -14 -49 -3 -94 -10 -99 -15 -6 -5
-32 -9 -58 -9 -26 0 -67 -4 -90 -9 -91 -20 -217 -41 -245 -41 -16 0 -33 -4
-38 -9 -6 -5 -28 -11 -50 -14 -77 -11 -300 -63 -327 -78 -10 -5 -29 -9 -43 -9
-14 0 -25 -4 -25 -10 0 -5 -7 -10 -16 -10 -18 0 -169 -47 -196 -61 -10 -5 -27
-9 -38 -9 -11 0 -20 -4 -20 -10 0 -5 -11 -10 -24 -10 -14 0 -27 -4 -30 -8 -3
-5 -32 -17 -65 -28 -34 -10 -61 -22 -61 -26 0 -5 -9 -8 -20 -8 -11 0 -28 -4
-38 -10 -33 -19 -135 -60 -148 -60 -8 0 -14 -4 -14 -10 0 -5 -6 -10 -13 -10
-6 0 -44 -15 -82 -33 -39 -19 -85 -40 -102 -48 -18 -8 -33 -17 -33 -21 0 -5
-6 -8 -12 -8 -16 0 -122 -53 -126 -62 -2 -5 -12 -8 -22 -8 -10 0 -20 -3 -22
-8 -4 -9 -126 -82 -139 -82 -5 0 -9 -4 -9 -10 0 -5 -7 -10 -15 -10 -8 0 -15
-4 -15 -8 0 -4 -25 -21 -55 -37 -30 -15 -55 -32 -55 -37 0 -4 -4 -8 -10 -8 -9
0 -72 -39 -97 -60 -7 -5 -16 -10 -22 -10 -5 0 -11 -3 -13 -8 -4 -9 -103 -82
-112 -82 -3 0 -20 -13 -38 -30 -17 -16 -34 -30 -38 -30 -4 0 -16 -8 -28 -18
-11 -10 -33 -27 -47 -38 -15 -10 -35 -26 -45 -34 -21 -17 -34 -28 -105 -85
-28 -22 -59 -49 -71 -60 -12 -11 -43 -39 -70 -61 -71 -60 -298 -287 -374 -375
-36 -40 -72 -81 -80 -89 -9 -8 -34 -37 -55 -65 -22 -27 -47 -57 -55 -65 -8 -8
-29 -33 -45 -55 -33 -44 -47 -62 -87 -108 -15 -18 -28 -36 -28 -41 0 -5 -8
-16 -18 -25 -10 -9 -27 -31 -37 -48 -11 -18 -23 -33 -27 -33 -4 0 -8 -6 -8
-13 0 -7 -9 -23 -20 -35 -11 -12 -20 -24 -20 -27 0 -3 -16 -27 -35 -54 -19
-26 -35 -53 -35 -60 0 -6 -4 -11 -10 -11 -5 0 -10 -4 -10 -10 0 -8 -34 -64
-57 -95 -5 -6 -18 -30 -31 -54 -33 -64 -56 -105 -63 -111 -3 -3 -15 -25 -27
-50 -28 -59 -55 -104 -64 -108 -5 -2 -8 -9 -8 -15 0 -7 -25 -64 -56 -127 -62
-129 -102 -214 -115 -247 -5 -13 -13 -33 -18 -45 -5 -13 -21 -57 -36 -98 -14
-41 -30 -83 -36 -92 -5 -10 -9 -27 -9 -38 0 -11 -4 -20 -10 -20 -5 0 -10 -8
-10 -17 0 -19 -27 -107 -41 -135 -5 -10 -9 -27 -9 -37 0 -11 -5 -23 -10 -26
-6 -3 -10 -17 -10 -31 0 -13 -4 -32 -10 -42 -9 -16 -46 -155 -57 -212 -2 -14
-8 -34 -13 -45 -5 -11 -11 -33 -14 -50 -3 -16 -9 -50 -15 -75 -44 -206 -67
-368 -93 -650 -16 -179 -16 -770 0 -925 7 -66 15 -149 18 -185 3 -36 9 -74 14
-85 5 -11 11 -42 14 -70 2 -27 12 -90 21 -140 9 -49 19 -111 22 -138 3 -26 10
-50 14 -53 5 -3 9 -23 9 -44 0 -21 4 -41 9 -44 5 -3 11 -23 14 -43 3 -21 12
-65 22 -98 9 -33 19 -75 22 -93 3 -18 9 -35 14 -38 5 -3 9 -18 9 -35 0 -16 5
-29 10 -29 6 0 10 -8 10 -17 0 -19 46 -159 60 -185 6 -10 10 -27 10 -38 0 -11
5 -20 10 -20 6 0 10 -9 10 -20 0 -11 4 -28 9 -38 5 -9 22 -48 37 -87 15 -38
42 -103 60 -142 19 -40 34 -80 34 -88 0 -8 5 -15 10 -15 6 0 10 -11 10 -25 0
-14 3 -25 8 -25 4 0 21 -32 37 -70 17 -38 33 -70 38 -70 4 0 7 -9 7 -20 0 -11
5 -20 10 -20 6 0 10 -8 10 -18 0 -10 4 -22 9 -28 4 -5 24 -38 43 -74 64 -118
92 -165 100 -168 4 -2 8 -10 8 -18 0 -8 5 -14 10 -14 6 0 10 -5 10 -10 0 -12
52 -94 63 -98 4 -2 7 -12 7 -22 0 -10 4 -20 8 -22 10 -4 102 -133 102 -142 0
-4 11 -19 25 -34 14 -15 25 -31 25 -37 0 -6 9 -17 20 -25 11 -8 20 -19 20 -25
0 -6 10 -21 23 -35 12 -14 34 -41 47 -60 13 -19 29 -40 35 -46 5 -6 24 -28 40
-49 40 -51 86 -107 105 -125 8 -8 32 -37 54 -63 45 -57 310 -322 387 -389 30
-26 72 -64 95 -85 23 -21 53 -47 69 -58 15 -11 39 -31 55 -45 15 -14 45 -38
65 -55 21 -16 44 -36 51 -42 7 -7 15 -13 19 -13 3 0 17 -11 31 -25 14 -14 28
-25 32 -25 4 0 20 -11 36 -25 16 -13 52 -39 80 -57 28 -18 53 -36 54 -40 2 -5
10 -8 18 -8 8 0 14 -4 14 -8 0 -5 15 -16 32 -25 38 -19 71 -39 78 -47 3 -3 28
-19 55 -35 28 -15 52 -31 55 -34 3 -3 19 -13 35 -21 17 -8 32 -17 35 -20 3 -3
23 -14 45 -25 22 -11 42 -22 45 -25 3 -3 19 -12 35 -20 17 -8 32 -17 35 -20 3
-3 32 -19 65 -35 33 -17 62 -33 63 -37 2 -5 9 -8 15 -8 7 0 52 -20 101 -45 49
-25 95 -45 102 -45 8 0 14 -4 14 -10 0 -5 9 -10 19 -10 11 0 22 -4 25 -9 3 -5
18 -12 33 -16 15 -3 45 -15 67 -26 22 -10 48 -19 58 -19 10 0 18 -4 18 -9 0
-5 10 -11 23 -14 12 -2 60 -19 107 -36 47 -17 93 -31 103 -31 9 0 17 -4 17
-10 0 -5 9 -10 20 -10 10 0 29 -4 42 -9 13 -5 50 -17 83 -26 33 -9 68 -21 77
-26 10 -5 29 -9 42 -9 14 0 27 -4 30 -9 3 -5 20 -11 38 -14 37 -5 186 -42 234
-57 17 -6 44 -10 60 -10 17 0 34 -4 39 -9 6 -5 28 -11 50 -14 22 -3 90 -13
150 -22 315 -47 475 -57 865 -57 190 0 390 5 445 11 173 18 257 28 365 46 58
9 123 19 145 22 22 2 49 8 60 13 11 5 36 11 55 14 45 6 118 22 200 42 36 9 82
18 103 21 20 3 37 9 37 14 0 5 11 9 25 9 14 0 33 4 43 9 9 5 58 21 107 36 50
15 98 31 107 36 10 5 26 9 36 9 10 0 22 4 27 8 6 4 35 16 65 26 30 11 59 23
65 27 5 5 19 9 32 9 13 0 23 3 23 8 0 4 18 13 40 20 23 7 64 24 92 37 29 14
60 25 70 25 10 0 18 5 18 10 0 6 9 10 20 10 11 0 20 5 20 10 0 6 5 10 12 10 6
0 32 10 57 21 135 63 156 74 159 81 2 4 9 8 15 8 13 0 73 30 162 82 33 19 71
41 85 49 14 8 27 16 30 19 8 8 42 29 78 47 17 9 32 20 32 25 0 4 4 8 10 8 13
0 124 71 128 82 2 4 8 8 13 8 7 0 75 46 116 80 7 6 16 10 22 10 5 0 11 4 13 8
2 4 21 21 43 37 22 17 44 34 50 38 5 4 39 29 75 55 36 25 72 54 80 62 8 9 29
26 45 39 72 55 150 128 329 307 176 175 228 231 318 339 18 21 45 52 61 67 15
15 27 31 27 35 0 4 20 29 45 55 25 27 45 51 45 55 0 7 33 52 78 108 26 33 102
144 102 149 0 4 8 16 19 27 10 11 27 37 37 59 10 22 22 40 27 40 4 0 7 7 7 15
0 8 3 15 8 15 4 0 20 25 37 55 16 30 33 55 37 55 4 0 8 9 8 19 0 11 3 21 8 23
9 4 51 76 59 101 3 9 9 17 14 17 5 0 9 9 9 19 0 11 3 21 8 23 10 4 152 290
152 306 0 6 5 12 10 12 6 0 10 9 10 20 0 11 5 20 10 20 6 0 10 9 10 19 0 11 4
22 9 25 5 3 12 18 16 33 3 15 15 45 26 67 10 22 19 48 19 58 0 10 5 18 10 18
6 0 10 9 10 20 0 11 4 28 9 38 23 46 41 95 41 112 0 10 5 22 10 25 6 3 10 15
10 26 0 10 4 27 10 37 14 26 40 110 40 132 0 10 5 22 10 25 6 3 10 19 10 36 0
16 5 29 10 29 6 0 10 16 10 35 0 19 5 35 10 35 6 0 10 8 10 18 0 18 44 204 60
258 6 17 10 44 10 60 0 17 4 34 9 40 5 5 12 29 15 54 3 25 12 95 21 155 45
318 58 504 57 845 0 326 -13 497 -58 775 -8 55 -18 123 -21 150 -3 28 -9 54
-14 60 -5 5 -9 28 -9 51 0 24 -4 45 -9 48 -4 3 -11 25 -14 48 -4 24 -14 72
-22 108 -9 36 -19 82 -22 103 -3 20 -9 40 -14 43 -5 3 -9 16 -9 30 0 13 -4 32
-9 42 -14 27 -61 178 -61 196 0 9 -4 16 -10 16 -5 0 -10 11 -10 24 0 14 -4 28
-10 31 -5 3 -10 15 -10 26 0 10 -4 27 -9 37 -23 46 -41 95 -41 112 0 11 -4 20
-10 20 -5 0 -10 7 -10 15 0 8 -4 23 -9 33 -5 9 -22 49 -37 87 -15 39 -31 74
-36 79 -4 6 -8 18 -8 28 0 10 -3 18 -8 18 -4 0 -21 34 -37 75 -17 41 -33 75
-37 75 -5 0 -8 9 -8 20 0 11 -4 20 -10 20 -5 0 -10 9 -10 19 0 11 -3 21 -7 23
-5 2 -33 52 -63 111 -30 59 -63 117 -72 127 -10 11 -18 26 -18 35 0 8 -3 15
-8 15 -4 0 -12 9 -17 19 -32 62 -69 121 -77 121 -4 0 -8 5 -8 10 0 12 -52 94
-62 98 -5 2 -8 10 -8 18 0 8 -3 14 -7 14 -5 0 -21 23 -38 50 -16 27 -33 50
-37 50 -5 0 -8 7 -8 15 0 8 -3 15 -7 15 -5 0 -19 17 -33 37 -14 20 -29 41 -35
47 -5 6 -23 29 -39 51 -17 22 -32 42 -36 45 -3 3 -19 23 -35 45 -38 51 -55 72
-80 99 -11 12 -38 44 -60 71 -44 55 -391 402 -450 450 -20 17 -46 39 -59 50
-25 23 -130 112 -165 141 -13 10 -28 24 -35 29 -6 6 -47 37 -91 70 -44 33 -81
63 -83 68 -2 4 -8 7 -13 7 -9 0 -21 8 -54 38 -7 6 -18 12 -24 12 -6 0 -11 5
-11 10 0 6 -5 10 -12 10 -6 0 -26 11 -44 25 -18 14 -35 25 -39 25 -3 0 -15 9
-27 20 -12 11 -28 20 -35 20 -7 0 -13 5 -13 10 0 6 -6 10 -14 10 -8 0 -21 6
-28 13 -7 6 -26 19 -43 27 -16 8 -32 17 -35 20 -10 11 -132 80 -141 80 -5 0
-9 5 -9 10 0 6 -7 10 -15 10 -9 0 -32 10 -53 23 -20 12 -59 34 -87 47 -27 14
-51 28 -53 33 -2 4 -9 7 -15 7 -6 0 -56 22 -111 49 -129 63 -195 91 -212 91
-8 0 -14 5 -14 10 0 6 -11 10 -25 10 -14 0 -25 5 -25 10 0 6 -9 10 -20 10 -10
0 -36 7 -57 16 -21 9 -47 20 -58 24 -11 4 -33 13 -48 19 -15 6 -37 11 -47 11
-11 0 -20 5 -20 10 0 6 -7 10 -16 10 -19 0 -112 28 -136 41 -10 5 -29 9 -43 9
-14 0 -25 5 -25 10 0 6 -16 10 -35 10 -19 0 -35 5 -35 10 0 6 -8 10 -18 10
-11 0 -54 10 -98 21 -43 12 -96 24 -116 26 -21 3 -38 9 -38 14 0 5 -18 9 -40
9 -22 0 -48 4 -58 9 -15 8 -56 16 -242 46 -323 52 -853 76 -1180 53z m610
-249 c292 -17 538 -46 710 -84 41 -9 94 -19 118 -22 23 -3 45 -10 48 -14 3 -5
20 -9 39 -9 19 0 37 -4 40 -10 3 -5 16 -10 27 -10 12 0 35 -4 52 -10 17 -5 58
-17 91 -26 33 -8 68 -20 77 -25 10 -5 29 -9 43 -9 14 0 25 -4 25 -10 0 -5 10
-10 23 -10 23 -1 123 -33 134 -44 3 -3 17 -6 29 -6 13 0 26 -4 29 -10 3 -5 17
-10 30 -10 13 0 25 -3 27 -7 3 -8 116 -52 156 -60 12 -3 22 -9 22 -14 0 -5 9
-9 20 -9 11 0 20 -4 20 -10 0 -5 6 -10 13 -10 13 0 59 -19 99 -41 10 -5 25 -9
33 -9 8 0 15 -4 15 -10 0 -5 9 -10 19 -10 11 0 21 -3 23 -7 4 -10 110 -63 126
-63 6 0 12 -4 12 -8 0 -5 16 -14 35 -22 19 -8 35 -17 35 -20 0 -4 20 -15 45
-26 25 -10 45 -22 45 -26 0 -4 4 -8 9 -8 9 0 118 -63 138 -80 7 -5 17 -10 23
-10 5 0 10 -3 10 -7 0 -5 18 -17 40 -27 22 -10 48 -27 59 -37 11 -11 23 -19
26 -19 9 0 90 -54 93 -62 2 -5 8 -8 13 -8 5 0 17 -7 26 -14 10 -8 43 -33 73
-55 30 -22 60 -44 65 -48 6 -5 33 -26 60 -48 28 -22 52 -42 55 -45 3 -3 34
-30 70 -60 35 -30 78 -66 94 -80 87 -74 516 -512 516 -526 0 -2 8 -12 18 -22
41 -44 72 -83 72 -92 0 -5 3 -10 8 -10 4 0 21 -20 37 -45 17 -24 33 -45 38
-45 4 0 7 -7 7 -15 0 -8 3 -15 8 -15 4 0 21 -21 37 -45 17 -25 33 -45 38 -45
4 0 7 -7 7 -15 0 -8 4 -15 9 -15 5 0 14 -13 21 -30 7 -16 15 -30 19 -30 4 0
15 -16 25 -35 11 -19 23 -35 28 -35 4 0 8 -5 8 -10 0 -10 49 -90 61 -100 3 -3
8 -10 10 -15 6 -15 92 -159 99 -165 11 -10 170 -335 170 -348 0 -6 5 -12 10
-12 6 0 10 -6 10 -13 0 -7 11 -37 25 -65 14 -29 25 -59 25 -67 0 -8 5 -15 10
-15 6 0 10 -7 10 -15 0 -8 4 -23 9 -33 15 -27 37 -83 52 -127 7 -22 16 -44 19
-50 4 -5 13 -30 20 -55 7 -25 16 -49 20 -55 3 -5 15 -37 25 -70 10 -33 21 -69
25 -80 4 -11 13 -40 20 -65 7 -25 16 -56 21 -70 12 -38 31 -110 41 -157 4 -24
13 -63 18 -88 27 -122 32 -144 39 -195 5 -30 12 -66 15 -80 12 -45 36 -238 58
-460 20 -211 10 -881 -13 -896 -5 -3 -9 -36 -9 -74 0 -39 -4 -89 -9 -112 -9
-40 -46 -258 -57 -338 -3 -19 -9 -44 -14 -55 -5 -11 -11 -33 -13 -50 -8 -50
-48 -209 -58 -227 -5 -10 -9 -29 -9 -43 0 -14 -4 -25 -10 -25 -5 0 -10 -11
-10 -25 0 -14 -4 -33 -9 -43 -5 -9 -16 -44 -26 -77 -9 -33 -21 -68 -26 -77 -5
-10 -9 -25 -9 -33 0 -8 -4 -24 -10 -35 -22 -43 -27 -57 -46 -117 -10 -35 -22
-63 -26 -63 -5 0 -8 -11 -8 -25 0 -14 -4 -25 -10 -25 -5 0 -10 -6 -10 -14 0
-18 -72 -180 -82 -184 -5 -2 -8 -9 -8 -15 0 -15 -73 -161 -82 -165 -5 -2 -8
-12 -8 -22 0 -10 -3 -20 -7 -22 -5 -1 -21 -30 -38 -63 -16 -33 -32 -62 -35
-65 -3 -3 -14 -21 -23 -40 -19 -37 -39 -72 -47 -80 -3 -3 -12 -18 -20 -35 -8
-16 -18 -34 -23 -40 -23 -30 -57 -87 -57 -95 0 -6 -4 -10 -8 -10 -5 0 -15 -12
-23 -27 -17 -34 -61 -97 -71 -101 -5 -2 -8 -8 -8 -13 0 -11 -71 -113 -82 -117
-5 -2 -8 -8 -8 -13 0 -5 -16 -26 -35 -46 -19 -20 -35 -41 -35 -46 0 -5 -8 -17
-18 -26 -10 -9 -36 -38 -57 -66 -22 -27 -59 -68 -82 -92 -24 -23 -43 -44 -43
-47 0 -14 -316 -334 -420 -426 -35 -30 -76 -67 -93 -82 -16 -16 -32 -28 -36
-28 -3 0 -19 -12 -36 -28 -16 -15 -48 -40 -70 -57 -22 -16 -49 -37 -59 -47
-11 -10 -24 -18 -29 -18 -4 0 -14 -6 -21 -12 -7 -7 -25 -22 -40 -33 -16 -11
-34 -26 -41 -32 -8 -7 -18 -13 -23 -13 -6 0 -12 -3 -14 -8 -1 -4 -30 -25 -63
-47 -33 -21 -62 -41 -65 -44 -7 -8 -40 -28 -77 -48 -18 -9 -33 -20 -33 -25 0
-4 -7 -8 -15 -8 -8 0 -15 -4 -15 -10 0 -5 -5 -10 -10 -10 -6 0 -29 -11 -51
-26 -50 -31 -84 -50 -179 -100 -41 -21 -76 -42 -78 -46 -2 -5 -12 -8 -23 -8
-10 0 -19 -4 -19 -10 0 -5 -5 -10 -10 -10 -6 0 -33 -11 -62 -25 -28 -14 -57
-25 -64 -25 -7 0 -14 -4 -16 -8 -4 -10 -125 -62 -144 -62 -8 0 -14 -4 -14 -10
0 -5 -9 -10 -19 -10 -11 0 -23 -4 -26 -10 -3 -5 -15 -10 -26 -10 -10 0 -19 -3
-19 -7 0 -5 -28 -17 -63 -27 -34 -11 -69 -23 -77 -27 -39 -18 -73 -31 -171
-64 -58 -19 -113 -35 -122 -35 -10 0 -17 -4 -17 -10 0 -5 -16 -10 -35 -10 -19
0 -35 -4 -35 -10 0 -5 -10 -10 -22 -10 -13 0 -45 -7 -72 -15 -27 -8 -62 -15
-78 -15 -15 0 -28 -4 -28 -10 0 -5 -20 -10 -45 -10 -25 0 -45 -4 -45 -9 0 -5
-21 -11 -47 -14 -27 -3 -86 -12 -133 -22 -118 -23 -277 -45 -485 -67 -203 -21
-924 -12 -980 12 -11 5 -51 11 -90 14 -119 8 -332 41 -373 57 -13 5 -38 9 -57
9 -19 0 -35 5 -35 10 0 6 -16 10 -35 10 -19 0 -43 4 -53 9 -9 5 -53 17 -97 27
-44 9 -84 21 -90 26 -5 4 -21 8 -36 8 -15 0 -31 5 -34 10 -3 6 -19 10 -36 10
-16 0 -29 5 -29 10 0 6 -9 10 -20 10 -22 0 -106 26 -132 40 -10 6 -27 10 -37
10 -11 0 -23 5 -26 10 -3 6 -17 10 -31 10 -13 0 -24 3 -24 8 0 4 -30 16 -66
27 -36 11 -68 23 -70 27 -3 5 -14 8 -25 8 -10 0 -19 5 -19 10 0 6 -8 10 -18
10 -10 0 -42 11 -70 25 -29 14 -56 25 -62 25 -5 0 -10 5 -10 10 0 6 -9 10 -20
10 -11 0 -20 5 -20 10 0 6 -5 10 -12 10 -15 0 -162 73 -166 83 -2 4 -10 7 -17
7 -7 0 -42 16 -77 36 -34 20 -92 53 -128 72 -36 20 -66 39 -68 44 -2 4 -10 8
-18 8 -8 0 -14 5 -14 10 0 6 -7 10 -15 10 -9 0 -25 8 -36 19 -11 10 -37 27
-59 37 -22 10 -40 22 -40 27 0 4 -6 7 -14 7 -8 0 -16 3 -18 8 -1 4 -26 22 -54
40 -28 18 -64 44 -80 57 -16 14 -32 25 -36 25 -4 0 -18 11 -32 25 -14 14 -28
25 -31 25 -7 0 -24 14 -60 47 -13 13 -27 23 -30 23 -4 0 -12 6 -19 12 -7 7
-30 27 -50 43 -21 17 -55 45 -75 63 -20 19 -54 48 -75 65 -59 48 -402 391
-476 477 -36 41 -68 77 -72 78 -5 2 -8 10 -8 17 0 7 -3 15 -7 17 -5 2 -26 26
-48 53 -22 28 -43 52 -47 53 -5 2 -8 9 -8 15 0 7 -16 30 -35 52 -19 22 -35 45
-35 50 0 6 -9 17 -20 25 -11 8 -20 18 -20 22 0 8 -90 140 -101 148 -3 3 -19
29 -35 57 -15 29 -32 53 -36 53 -4 0 -8 4 -8 10 0 5 -16 34 -35 64 -19 30 -35
57 -35 60 0 3 -16 30 -35 60 -19 30 -35 60 -35 66 0 5 -4 10 -10 10 -5 0 -10
6 -10 14 0 8 -16 42 -35 76 -19 34 -35 68 -35 76 0 8 -4 14 -10 14 -5 0 -10 6
-10 13 0 6 -16 45 -35 84 -19 40 -35 79 -35 88 0 8 -4 15 -10 15 -5 0 -10 7
-10 15 0 8 -4 23 -9 33 -9 17 -16 34 -46 107 -9 22 -21 48 -26 57 -5 10 -9 27
-9 38 0 11 -4 20 -10 20 -5 0 -10 9 -10 20 0 17 -18 66 -41 112 -5 10 -9 27
-9 37 0 11 -4 23 -10 26 -5 3 -10 15 -10 26 0 10 -4 27 -9 37 -5 9 -17 44 -26
77 -9 33 -21 70 -26 83 -5 13 -9 36 -9 52 0 17 -4 30 -10 30 -5 0 -10 18 -10
39 0 22 -4 42 -9 45 -5 3 -11 23 -14 43 -3 21 -13 74 -22 118 -8 44 -18 104
-22 133 -3 29 -9 55 -14 58 -5 3 -9 31 -9 63 0 31 -4 61 -9 67 -5 5 -11 38
-14 74 -2 36 -10 112 -18 170 -9 70 -13 220 -12 450 0 317 7 454 34 670 5 41
12 102 15 135 3 33 10 64 15 70 5 5 9 23 9 40 0 16 10 73 21 125 12 52 23 112
26 133 3 20 9 37 14 37 5 0 9 15 9 34 0 19 4 37 9 40 5 3 11 20 14 38 3 18 13
60 22 93 9 33 19 72 22 88 3 15 9 27 14 27 5 0 9 11 9 25 0 14 4 33 10 43 14
26 60 168 60 186 0 9 5 16 10 16 6 0 10 9 10 20 0 20 4 29 28 77 7 13 12 28
12 34 0 7 11 35 24 63 54 116 76 167 76 176 0 6 5 10 10 10 6 0 10 6 10 13 0
15 72 161 83 165 4 2 7 12 7 22 0 10 3 20 8 22 4 2 25 38 47 80 22 43 43 78
48 78 4 0 7 9 7 20 0 11 5 20 10 20 6 0 10 7 10 15 0 8 4 15 8 15 5 0 16 17
25 38 9 21 25 47 34 58 10 11 27 35 37 54 11 19 43 70 73 113 29 43 53 82 53
86 0 3 9 13 20 21 11 8 20 19 20 25 0 6 10 21 23 35 13 14 37 45 54 70 17 25
42 56 55 70 13 14 41 48 63 75 22 28 53 63 69 80 15 16 40 45 55 64 38 50 377
389 436 436 27 22 59 49 71 60 11 11 33 29 48 40 26 19 39 29 83 65 10 9 36
29 58 45 22 17 45 35 51 40 6 6 27 21 47 35 20 14 37 28 37 33 0 4 4 7 10 7 9
0 212 133 253 166 9 8 19 14 22 14 3 0 29 16 59 35 30 19 60 35 66 35 5 0 10
5 10 10 0 6 7 10 15 10 8 0 15 3 15 8 0 4 20 16 45 27 25 11 45 23 45 28 0 4
9 7 19 7 11 0 21 4 23 8 3 9 113 62 128 62 6 0 10 5 10 10 0 6 9 10 20 10 11
0 20 5 20 10 0 6 6 10 13 10 6 0 45 16 84 35 40 19 79 35 87 35 8 0 18 5 21
10 3 6 15 10 26 10 10 0 19 5 19 10 0 6 7 10 15 10 8 0 23 4 33 9 46 23 95 41
112 41 11 0 20 5 20 10 0 6 11 10 24 10 13 0 26 3 28 8 4 9 159 62 182 62 9 0
16 5 16 10 0 6 13 10 29 10 17 0 33 5 36 10 3 6 15 10 26 10 10 0 27 4 37 10
17 9 89 27 150 37 18 3 35 9 38 14 3 5 22 9 43 9 20 0 41 4 46 9 6 5 28 11 50
14 22 3 78 13 125 22 47 8 108 18 135 21 28 3 59 9 70 14 11 5 47 11 80 14 33
3 103 10 155 16 259 30 512 36 790 19z"/>
<path d="M6955 9564 c-38 -8 -88 -17 -110 -20 -22 -4 -44 -10 -49 -15 -6 -5
-25 -9 -43 -9 -18 0 -33 -4 -33 -8 0 -11 -66 -42 -90 -42 -11 0 -20 -3 -20 -8
0 -4 -18 -13 -41 -20 -22 -7 -50 -22 -62 -33 -12 -11 -41 -29 -65 -39 -23 -10
-45 -26 -48 -34 -3 -9 -12 -16 -19 -16 -7 0 -30 -16 -51 -35 -21 -19 -42 -35
-47 -35 -5 0 -30 -20 -55 -45 -24 -25 -49 -45 -53 -45 -5 0 -9 -5 -9 -10 0 -6
-10 -21 -22 -34 -33 -33 -90 -99 -113 -131 -11 -15 -26 -33 -32 -40 -7 -8 -13
-17 -13 -22 0 -5 -9 -15 -20 -23 -11 -8 -20 -19 -20 -26 0 -6 -9 -19 -20 -29
-12 -11 -28 -35 -37 -54 -10 -20 -19 -38 -23 -41 -11 -11 -60 -90 -60 -99 0
-5 -4 -11 -8 -13 -4 -1 -20 -29 -36 -60 -15 -32 -32 -58 -37 -58 -5 0 -9 -7
-9 -15 0 -8 -4 -23 -9 -33 -5 -9 -22 -45 -37 -79 -15 -35 -31 -63 -36 -63 -4
0 -8 -16 -8 -35 0 -19 -4 -35 -10 -35 -5 0 -10 -8 -10 -18 0 -10 -9 -37 -20
-60 -11 -22 -20 -47 -20 -54 0 -7 -7 -22 -15 -32 -8 -11 -15 -35 -15 -53 0
-18 -3 -33 -8 -33 -8 0 -39 -98 -47 -155 -4 -22 -12 -49 -19 -60 -7 -11 -19
-57 -26 -102 -8 -46 -17 -83 -22 -83 -4 0 -8 -9 -8 -20 0 -17 -23 -73 -35 -88
-7 -8 -35 12 -35 25 0 15 -68 115 -82 121 -5 2 -8 12 -8 22 0 10 -19 38 -43
63 -24 26 -49 58 -57 72 -7 14 -19 25 -27 25 -7 0 -13 7 -13 15 0 8 -9 20 -20
27 -11 7 -20 21 -20 30 0 10 -5 18 -12 18 -6 0 -42 32 -80 70 -38 39 -72 70
-76 70 -4 0 -14 9 -22 20 -8 11 -18 20 -21 20 -4 0 -23 15 -42 33 -19 17 -47
41 -62 52 -16 11 -36 27 -44 36 -9 9 -39 29 -67 43 -29 15 -60 36 -69 46 -10
11 -29 20 -42 20 -12 0 -23 5 -23 10 0 6 -7 10 -15 10 -8 0 -15 5 -15 10 0 6
-8 10 -19 10 -10 0 -30 9 -44 20 -14 11 -39 23 -56 26 -17 4 -34 11 -37 15 -3
5 -14 9 -25 9 -10 0 -19 5 -19 10 0 6 -17 10 -38 10 -21 0 -42 3 -46 7 -24 24
-113 41 -331 63 -183 18 -507 -19 -551 -63 -4 -4 -25 -7 -46 -7 -21 0 -38 -4
-38 -10 0 -5 -11 -10 -25 -10 -14 0 -25 -4 -25 -10 0 -5 -8 -10 -17 -10 -10 0
-36 -11 -58 -25 -22 -13 -47 -25 -56 -25 -8 0 -25 -9 -37 -20 -12 -11 -30 -20
-41 -20 -11 0 -26 -7 -34 -15 -9 -8 -42 -29 -74 -47 -32 -17 -64 -38 -71 -45
-7 -7 -17 -13 -21 -13 -4 0 -16 -9 -28 -19 -11 -10 -34 -26 -52 -35 -17 -9
-37 -25 -44 -36 -6 -11 -17 -20 -24 -20 -7 0 -13 -3 -13 -7 0 -5 -17 -19 -38
-33 -42 -28 -46 -31 -87 -65 -16 -14 -33 -25 -37 -25 -5 0 -8 -7 -8 -15 0 -8
-6 -15 -12 -15 -7 0 -44 -29 -83 -65 -38 -36 -73 -65 -77 -65 -5 0 -8 -7 -8
-15 0 -8 -4 -15 -9 -15 -11 0 -141 -131 -141 -142 0 -4 -7 -8 -15 -8 -8 0 -15
-6 -15 -13 0 -7 -25 -39 -55 -70 -30 -31 -55 -60 -55 -63 0 -4 -11 -16 -23
-28 -13 -11 -34 -37 -48 -56 -13 -19 -28 -40 -34 -46 -5 -6 -23 -28 -40 -48
-16 -20 -42 -52 -58 -70 -15 -19 -27 -37 -27 -41 0 -3 -6 -12 -12 -19 -7 -7
-22 -25 -33 -40 -11 -16 -26 -34 -32 -41 -7 -8 -13 -21 -13 -29 0 -9 -4 -16
-10 -16 -5 0 -10 -6 -10 -13 0 -7 -16 -31 -35 -53 -19 -21 -35 -45 -35 -53 0
-7 -8 -21 -17 -30 -22 -20 -37 -44 -60 -93 -10 -21 -21 -38 -25 -38 -5 0 -8
-6 -8 -14 0 -16 -51 -110 -62 -114 -4 -2 -8 -17 -8 -32 0 -16 -4 -31 -9 -34
-9 -6 -11 -17 -32 -162 -13 -93 -6 -154 18 -154 17 0 85 70 104 109 8 14 23
40 34 56 12 17 27 44 34 60 23 52 73 148 85 162 6 8 28 33 49 55 20 22 37 44
37 49 0 5 3 9 8 9 4 0 13 14 20 30 8 17 20 30 28 30 8 0 14 4 14 9 0 5 18 28
40 52 22 24 40 48 40 52 0 4 16 23 35 43 19 19 35 41 35 48 0 7 15 26 33 42
32 29 47 49 69 92 6 12 17 22 25 22 7 0 13 3 13 8 0 7 33 49 70 89 11 12 20
25 20 27 0 9 200 206 209 206 4 0 13 11 21 24 7 14 23 27 36 30 13 4 24 13 24
21 0 8 6 15 13 15 6 0 46 32 87 70 41 39 77 70 81 70 4 0 21 12 37 28 39 35
62 55 83 67 30 18 74 50 92 66 9 9 30 22 45 30 15 8 32 19 37 26 6 7 42 28 80
49 39 20 72 40 75 44 7 11 137 70 155 70 7 0 16 4 20 10 3 5 31 17 63 26 31 9
66 20 77 24 50 20 94 24 300 23 210 0 288 -6 310 -23 6 -5 31 -11 58 -15 26
-4 58 -16 71 -26 13 -11 34 -19 45 -19 12 0 21 -4 21 -10 0 -5 9 -10 20 -10
11 0 20 -4 20 -9 0 -5 11 -11 23 -15 13 -3 41 -19 62 -36 21 -16 44 -30 51
-30 7 0 34 -20 61 -45 26 -25 52 -45 58 -45 11 0 225 -202 225 -212 0 -4 16
-24 35 -45 63 -68 75 -82 75 -88 0 -3 10 -17 23 -30 34 -37 47 -54 47 -61 0
-10 72 -118 82 -122 4 -2 8 -10 8 -17 0 -14 64 -133 81 -149 5 -6 9 -25 9 -44
0 -18 6 -40 14 -48 8 -7 24 -44 36 -81 13 -38 26 -72 30 -78 4 -5 10 -26 13
-45 11 -66 24 -125 34 -150 6 -14 13 -59 17 -100 4 -41 13 -106 22 -145 12
-58 14 -149 11 -525 -2 -275 -8 -479 -15 -515 -6 -33 -14 -86 -17 -118 -7 -59
-19 -78 -80 -122 -16 -11 -51 -41 -79 -67 -27 -27 -54 -48 -58 -48 -5 0 -22
-13 -40 -30 -17 -16 -35 -30 -39 -30 -4 0 -18 -10 -31 -23 -13 -12 -50 -40
-83 -62 -33 -22 -61 -43 -63 -47 -2 -5 -9 -8 -17 -8 -7 0 -18 -7 -26 -16 -7
-8 -30 -25 -52 -36 -22 -11 -52 -31 -66 -44 -14 -13 -31 -24 -38 -24 -7 0 -13
-4 -13 -10 0 -5 -4 -10 -9 -10 -5 0 -42 -20 -82 -45 -40 -25 -79 -45 -86 -45
-8 0 -23 -9 -35 -20 -12 -11 -30 -20 -39 -20 -10 0 -25 -7 -33 -15 -8 -9 -30
-21 -48 -27 -18 -6 -45 -19 -60 -30 -14 -10 -36 -18 -47 -18 -12 0 -31 -9 -43
-20 -12 -11 -37 -25 -57 -31 -20 -6 -56 -21 -81 -32 -25 -11 -87 -35 -138 -53
-52 -18 -96 -35 -100 -38 -3 -3 -14 -6 -24 -6 -10 0 -18 -4 -18 -10 0 -5 -9
-10 -20 -10 -22 0 -106 -26 -132 -40 -10 -6 -27 -10 -38 -10 -11 0 -28 -4 -38
-9 -9 -5 -28 -13 -42 -19 -14 -5 -41 -17 -62 -26 -20 -9 -43 -16 -51 -16 -9 0
-19 -4 -22 -10 -3 -5 -18 -10 -33 -10 -16 0 -34 -8 -42 -20 -8 -11 -24 -20
-35 -20 -11 0 -40 -11 -64 -25 -23 -14 -54 -25 -67 -25 -13 0 -24 -4 -24 -10
0 -5 -6 -10 -14 -10 -8 0 -16 -4 -18 -8 -4 -11 -98 -62 -114 -62 -8 0 -14 -4
-14 -8 0 -5 -16 -14 -35 -22 -19 -8 -35 -17 -35 -20 0 -7 -72 -40 -88 -40 -6
0 -13 4 -16 8 -3 5 -12 125 -21 267 -9 142 -18 262 -20 266 -3 3 -10 64 -16
135 -6 71 -15 161 -20 199 -5 39 -13 111 -18 160 -4 50 -17 119 -29 155 -11
36 -26 97 -32 135 -7 39 -16 75 -20 80 -4 6 -15 36 -24 68 -10 31 -21 57 -25
57 -3 0 -11 10 -16 22 -6 12 -24 26 -41 30 -17 4 -37 15 -44 23 -7 8 -23 15
-35 15 -13 0 -25 5 -27 12 -4 11 -29 -54 -58 -148 -13 -42 -9 -294 9 -609 4
-77 13 -248 20 -380 6 -132 19 -305 28 -385 10 -80 19 -206 21 -280 l3 -136
-33 -38 c-18 -21 -54 -60 -81 -87 -26 -26 -47 -51 -47 -54 0 -3 -15 -20 -33
-38 -19 -17 -44 -48 -58 -67 -13 -19 -33 -45 -44 -57 -38 -41 -45 -52 -45 -68
0 -8 -3 -15 -8 -15 -4 0 -13 -15 -21 -32 -7 -18 -19 -37 -25 -43 -21 -18 -76
-122 -76 -143 0 -11 -7 -27 -15 -36 -8 -8 -15 -24 -15 -35 0 -11 -4 -23 -10
-26 -5 -3 -10 -17 -10 -30 0 -13 -5 -25 -11 -27 -16 -5 -16 -355 0 -371 6 -6
11 -26 11 -44 0 -18 5 -33 10 -33 6 0 10 -8 10 -19 0 -27 45 -106 83 -147 19
-20 41 -44 49 -53 33 -36 127 -121 135 -121 4 -1 28 -21 53 -45 25 -25 51 -45
58 -45 6 0 12 -4 12 -10 0 -5 5 -10 10 -10 6 0 36 -16 66 -35 30 -19 59 -35
64 -35 6 0 18 -4 28 -9 9 -5 35 -17 57 -26 22 -10 51 -23 65 -30 14 -7 51 -20
83 -30 31 -10 57 -22 57 -26 0 -5 17 -9 38 -9 21 0 42 -4 47 -9 16 -15 115
-41 155 -41 20 0 42 -6 48 -12 17 -17 423 -18 443 -1 8 6 32 13 54 16 57 7
128 26 140 38 5 5 24 9 42 9 18 0 33 3 33 8 0 8 48 32 64 32 15 0 120 53 124
63 2 4 12 7 23 7 10 0 19 5 19 10 0 6 5 10 11 10 6 0 25 11 43 25 18 14 38 25
44 25 7 0 12 5 12 10 0 6 5 10 10 10 6 0 16 5 23 10 7 6 39 31 72 55 33 25 65
48 70 53 6 4 28 21 50 37 22 16 55 44 73 62 18 18 38 33 44 33 10 0 33 23 62
60 6 9 25 24 41 34 17 11 39 30 50 44 22 28 53 59 81 83 11 8 28 28 39 44 11
16 30 39 43 52 12 13 22 26 22 29 0 3 11 16 24 29 26 26 86 109 86 119 0 3 7
14 15 23 42 49 75 91 75 97 0 3 15 28 33 54 18 26 39 62 46 80 7 17 17 32 22
32 5 0 9 6 9 14 0 7 11 30 25 50 14 20 25 44 25 52 0 8 9 24 19 35 11 12 22
33 26 47 3 14 15 37 26 50 10 14 19 35 19 48 0 13 5 24 10 24 6 0 10 6 10 14
0 8 6 16 14 19 7 3 16 21 20 40 4 19 13 40 21 47 8 7 15 21 15 31 0 18 18 57
31 69 3 3 18 36 34 73 16 37 32 70 37 73 4 3 8 16 8 30 0 13 4 24 8 24 5 0 14
19 21 43 7 23 24 65 37 92 13 28 24 60 24 72 0 12 5 23 11 25 6 2 17 26 24 53
16 58 38 118 46 125 3 3 13 37 23 75 9 39 21 86 26 105 14 53 36 102 59 128
l20 24 21 -34 c11 -18 20 -40 20 -49 0 -8 9 -34 20 -57 11 -22 20 -47 20 -55
0 -8 7 -20 15 -27 8 -7 20 -30 27 -51 6 -22 15 -39 20 -39 4 0 8 -9 8 -20 0
-11 5 -20 10 -20 6 0 10 -11 10 -24 0 -13 7 -26 15 -29 8 -4 23 -23 33 -44 42
-84 106 -183 125 -191 4 -2 7 -12 7 -23 0 -11 10 -31 23 -44 37 -40 47 -54 47
-65 0 -5 5 -10 10 -10 6 0 10 -6 10 -13 0 -15 60 -85 201 -234 54 -57 139
-133 149 -133 5 0 10 -7 10 -15 0 -8 11 -17 25 -21 14 -3 25 -11 25 -18 0 -6
14 -17 32 -25 29 -13 59 -35 94 -69 7 -6 19 -12 27 -12 8 0 27 -13 43 -28 17
-16 78 -52 137 -82 59 -29 110 -57 113 -61 3 -5 14 -9 25 -9 10 0 19 -4 19
-10 0 -5 14 -10 30 -10 18 0 33 -6 36 -15 4 -8 16 -15 29 -15 21 0 69 -13 110
-30 56 -23 105 -32 276 -50 79 -8 180 -2 264 15 104 21 143 31 174 47 19 10
46 18 58 18 13 0 26 7 29 15 4 8 14 15 24 15 11 0 22 5 25 10 3 6 14 10 24 10
10 0 24 7 31 15 7 8 30 20 51 25 22 6 39 15 39 19 0 5 24 21 53 35 28 15 77
44 107 66 30 21 59 39 63 39 4 1 24 17 44 36 20 19 41 35 48 35 6 0 26 16 45
35 19 19 39 35 44 35 5 0 34 25 64 55 31 30 60 55 65 55 10 0 46 40 47 52 0 9
49 58 58 58 7 0 212 208 212 216 0 2 20 24 45 47 25 24 45 51 45 60 0 8 9 19
20 22 11 3 20 10 20 14 0 4 16 24 35 45 19 21 35 42 35 47 0 8 8 18 55 70 8 9
15 21 15 27 0 7 5 12 10 12 6 0 10 5 10 10 0 6 11 23 25 38 14 15 25 32 25 39
0 7 4 13 9 13 5 0 14 14 21 30 7 17 16 30 21 30 4 0 20 23 35 50 15 28 31 50
36 50 4 0 8 5 8 11 0 6 16 30 35 53 19 24 35 48 35 55 0 6 5 11 10 11 6 0 10
9 10 20 0 11 4 20 8 20 4 0 21 22 37 50 16 28 33 50 37 50 4 0 8 7 8 15 0 9 7
18 15 21 8 3 19 21 25 40 6 19 15 34 20 34 5 0 14 16 21 35 7 19 17 35 21 35
4 0 15 16 23 36 8 20 24 45 35 54 11 10 20 27 20 38 0 11 7 27 15 36 8 8 15
20 15 26 0 6 -18 -8 -40 -31 -22 -24 -40 -46 -40 -50 0 -4 -9 -11 -20 -14 -11
-3 -20 -13 -20 -21 0 -8 -20 -35 -45 -60 -25 -24 -45 -47 -45 -51 0 -4 -25
-31 -55 -60 -30 -29 -55 -57 -55 -60 0 -4 -9 -16 -20 -28 -65 -67 -147 -155
-161 -171 -8 -10 -27 -28 -42 -39 -15 -11 -27 -24 -27 -30 0 -6 -11 -19 -26
-29 -14 -11 -53 -47 -88 -80 -35 -34 -96 -90 -137 -126 -40 -36 -99 -91 -132
-123 -32 -31 -65 -57 -73 -57 -8 0 -14 -7 -14 -15 0 -8 -11 -17 -25 -21 -14
-3 -25 -12 -25 -20 0 -7 -10 -19 -22 -25 -24 -13 -37 -23 -71 -54 -12 -12 -49
-39 -82 -62 -34 -22 -67 -48 -74 -57 -7 -9 -17 -16 -22 -16 -5 0 -22 -12 -38
-27 -16 -16 -56 -41 -88 -57 -32 -16 -79 -44 -106 -63 -26 -18 -54 -33 -62
-33 -8 0 -15 -4 -15 -10 0 -5 -5 -10 -11 -10 -6 0 -17 -7 -26 -15 -8 -9 -29
-19 -45 -22 -16 -3 -32 -12 -35 -19 -3 -8 -11 -14 -19 -14 -8 0 -22 -4 -32 -9
-9 -5 -35 -17 -57 -26 -22 -10 -58 -26 -79 -36 -22 -11 -48 -19 -57 -19 -10 0
-21 -4 -24 -10 -3 -5 -22 -10 -41 -10 -19 0 -46 -8 -60 -17 -49 -32 -286 -30
-318 3 -9 8 -35 14 -66 14 -40 0 -70 9 -129 37 -42 21 -77 41 -79 45 -2 5 -12
8 -23 8 -19 0 -59 18 -69 32 -3 3 -24 14 -48 23 -23 10 -42 21 -42 26 0 5 -7
9 -15 9 -8 0 -15 5 -15 10 0 6 -9 10 -20 10 -11 0 -20 4 -20 9 0 5 -8 12 -17
15 -10 3 -34 19 -53 36 -19 16 -39 30 -43 30 -4 0 -17 9 -29 19 -11 11 -36 32
-55 48 -67 53 -209 198 -241 246 -18 26 -36 47 -40 47 -4 0 -16 16 -26 35 -11
19 -23 35 -28 35 -4 0 -8 5 -8 10 0 10 -49 91 -61 100 -6 5 -19 27 -77 130
-14 25 -29 47 -34 48 -4 2 -8 12 -8 23 0 10 -4 19 -10 19 -5 0 -10 8 -10 18 0
9 -9 28 -20 42 -11 14 -20 37 -20 51 0 15 -6 29 -13 32 -7 3 -19 24 -26 48 -7
24 -22 60 -32 80 -11 20 -19 44 -19 53 0 14 -19 65 -41 108 -5 10 -9 30 -9 46
0 15 -4 32 -8 37 -5 6 -17 42 -26 80 -10 39 -21 79 -26 90 -24 57 -38 201 -21
218 6 6 11 19 11 29 0 10 5 18 10 18 14 0 80 66 80 80 0 5 5 10 10 10 14 0 80
66 80 80 0 5 4 10 9 10 9 0 81 68 81 76 0 2 41 45 90 96 50 50 90 94 90 98 0
3 25 32 55 65 30 32 55 62 55 67 0 4 6 8 14 8 8 0 17 9 21 20 3 11 24 38 46
61 21 22 39 46 39 53 0 6 9 18 20 26 11 8 20 18 20 23 0 10 26 37 35 37 8 0
35 27 35 35 0 3 9 15 20 27 11 12 20 28 20 35 0 7 7 13 15 13 8 0 15 7 15 15
0 8 9 20 20 27 11 7 20 18 20 25 0 6 16 28 35 47 19 20 35 40 35 44 0 4 14 23
30 42 17 19 33 43 36 53 3 9 10 17 15 17 5 0 9 5 9 10 0 6 9 21 21 33 11 12
29 39 40 59 10 20 27 43 37 50 10 7 29 32 42 56 13 23 27 42 32 42 4 0 8 8 8
18 0 9 13 31 28 47 16 17 37 49 47 73 10 23 24 42 30 42 6 0 16 15 23 34 7 18
21 41 32 51 11 10 20 24 20 31 0 11 56 104 80 131 5 7 10 19 10 28 0 8 5 15
10 15 6 0 10 6 10 14 0 8 4 16 8 18 11 4 62 98 62 114 0 8 5 14 10 14 6 0 10
9 10 19 0 11 3 21 8 23 4 2 15 19 24 38 27 56 62 115 71 118 4 2 7 8 7 14 0
15 72 163 82 166 4 2 8 13 8 23 0 25 18 61 36 72 8 4 14 18 14 31 0 25 21 76
33 76 4 0 7 8 7 18 0 24 51 142 62 142 4 0 8 11 8 24 0 14 4 27 9 30 5 3 12
18 15 33 15 67 31 113 38 113 4 0 8 16 8 35 0 19 5 35 10 35 6 0 10 8 10 18 0
10 4 22 9 28 5 5 14 32 21 59 6 28 15 66 20 85 26 106 39 177 49 280 10 96 9
126 -3 185 -25 116 -33 143 -55 180 -12 20 -21 41 -21 47 0 5 -13 23 -30 38
-16 15 -30 32 -30 37 0 5 -16 23 -36 39 -20 16 -45 37 -55 47 -11 9 -26 17
-34 17 -8 0 -15 3 -15 8 0 4 -29 20 -65 36 -36 16 -65 33 -65 37 0 5 -13 9
-29 9 -17 0 -33 5 -36 10 -3 6 -19 10 -34 10 -15 0 -31 4 -36 9 -34 31 -344
41 -470 15z m404 -367 c19 -9 44 -17 56 -17 12 0 34 -11 49 -25 15 -14 31 -25
36 -25 5 0 29 -19 53 -42 40 -38 46 -50 53 -103 4 -33 7 -67 6 -75 -1 -8 -6
-53 -11 -100 -5 -47 -14 -101 -19 -120 -6 -19 -17 -60 -26 -90 -9 -30 -19 -70
-22 -87 -4 -18 -11 -33 -15 -33 -5 0 -9 -13 -9 -30 0 -16 -4 -30 -10 -30 -5 0
-10 -9 -10 -19 0 -11 -4 -23 -10 -26 -5 -3 -10 -16 -10 -27 0 -12 -11 -44 -24
-72 -13 -28 -31 -68 -40 -88 -9 -21 -21 -38 -26 -38 -6 0 -10 -8 -10 -17 0
-27 -34 -110 -79 -193 -4 -8 -24 -46 -44 -85 -19 -38 -46 -90 -59 -115 -13
-25 -26 -46 -30 -48 -5 -2 -8 -12 -8 -22 0 -10 -3 -20 -7 -22 -15 -6 -52 -66
-59 -94 -4 -16 -16 -37 -26 -48 -10 -11 -18 -27 -18 -37 0 -9 -6 -19 -12 -22
-7 -2 -24 -28 -38 -56 -14 -28 -28 -51 -32 -51 -5 0 -8 -5 -8 -11 0 -6 -11
-25 -25 -43 -14 -18 -25 -38 -25 -44 0 -7 -4 -12 -8 -12 -5 0 -15 -12 -23 -27
-7 -16 -24 -42 -36 -59 -13 -17 -23 -36 -23 -42 0 -7 -3 -12 -8 -12 -4 0 -32
-39 -62 -87 -30 -49 -68 -104 -85 -124 -52 -62 -65 -79 -65 -87 0 -4 -12 -20
-26 -37 -14 -16 -38 -45 -52 -64 -15 -18 -35 -42 -44 -54 -10 -11 -18 -23 -18
-26 0 -3 -14 -22 -30 -41 -16 -19 -30 -41 -30 -47 0 -7 -7 -13 -15 -13 -8 0
-15 -4 -15 -8 0 -4 -22 -33 -50 -63 -27 -29 -50 -57 -50 -61 0 -4 -17 -25 -37
-46 -46 -47 -83 -97 -83 -112 0 -5 -4 -10 -9 -10 -5 0 -23 -15 -40 -32 -16
-18 -48 -52 -71 -76 -22 -24 -40 -45 -40 -47 0 -7 -29 -40 -107 -121 -39 -41
-74 -81 -77 -89 -3 -8 -11 -15 -18 -15 -7 0 -19 -9 -26 -20 -16 -26 -38 -26
-45 0 -3 11 -6 96 -7 188 -1 92 -6 237 -12 322 -19 297 -20 336 -9 430 7 52
14 151 17 220 7 188 15 274 25 286 4 6 13 46 19 90 17 131 22 154 31 154 5 0
9 29 9 64 0 36 5 68 10 71 6 3 10 18 10 33 1 15 7 38 15 52 8 14 14 40 15 58
0 18 9 52 20 74 11 23 20 56 20 74 0 18 5 36 10 39 6 3 10 13 10 22 0 9 6 24
13 32 8 9 20 42 27 74 7 31 17 57 22 57 4 0 8 14 8 30 0 17 5 30 10 30 6 0 10
9 10 20 0 11 7 23 15 26 8 4 15 14 15 25 0 23 21 69 32 69 4 0 8 9 8 19 0 11
5 23 10 26 6 3 10 15 10 26 0 10 4 19 8 19 5 0 17 19 28 43 10 23 27 51 36 61
10 11 18 25 18 30 0 6 11 24 25 40 14 16 25 33 25 38 0 5 11 20 24 33 14 14
39 45 56 70 17 25 35 45 40 45 6 0 10 8 10 18 0 10 11 25 25 32 14 7 25 18 25
23 0 11 70 77 82 77 4 0 8 6 8 13 0 6 28 30 63 52 34 22 71 48 81 57 11 10 28
18 38 18 10 0 18 4 18 8 0 11 45 32 69 32 10 0 31 11 47 25 19 17 41 25 65 25
20 0 39 3 43 8 22 22 102 31 256 29 134 -2 171 -5 199 -20z m-2301 -4636 c2
-25 -1 -54 -6 -65 -5 -12 -17 -48 -27 -81 -9 -33 -26 -78 -36 -100 -11 -22
-19 -51 -19 -65 0 -15 -4 -30 -8 -35 -5 -6 -21 -49 -37 -97 -15 -49 -32 -88
-36 -88 -5 0 -9 -13 -9 -30 0 -25 -43 -133 -60 -150 -13 -13 -30 -52 -30 -70
0 -11 -4 -20 -10 -20 -5 0 -10 -8 -10 -17 0 -10 -7 -27 -15 -37 -8 -11 -15
-28 -15 -38 0 -10 -9 -26 -20 -35 -11 -10 -20 -24 -20 -33 0 -8 -16 -46 -35
-85 -19 -38 -35 -76 -35 -82 0 -7 -4 -13 -10 -13 -5 0 -10 -9 -10 -20 0 -11
-4 -20 -10 -20 -5 0 -10 -7 -10 -15 0 -14 -25 -61 -40 -75 -3 -3 -25 -43 -49
-90 -23 -47 -54 -96 -67 -111 -13 -14 -24 -30 -24 -35 0 -6 -11 -24 -25 -40
-14 -16 -25 -33 -25 -39 0 -5 -16 -27 -35 -49 -19 -21 -35 -42 -35 -46 0 -4
-13 -21 -30 -38 -16 -18 -30 -34 -30 -37 0 -6 -125 -139 -149 -159 -7 -6 -32
-30 -56 -53 -23 -24 -48 -43 -54 -43 -6 0 -11 -7 -11 -15 0 -8 -5 -15 -10 -15
-6 0 -24 -14 -40 -30 -16 -17 -32 -30 -35 -30 -7 0 -159 -123 -163 -132 -2 -5
-12 -8 -23 -8 -10 0 -19 -4 -19 -10 0 -5 -7 -10 -15 -10 -8 0 -15 -4 -15 -10
0 -5 -7 -10 -15 -10 -9 0 -25 -8 -36 -19 -11 -10 -37 -27 -59 -37 -22 -10 -40
-22 -40 -26 0 -4 -17 -10 -37 -14 -21 -4 -49 -15 -62 -25 -13 -11 -32 -19 -42
-19 -11 0 -27 -4 -37 -9 -118 -60 -451 -65 -637 -11 -22 6 -53 14 -70 17 -16
3 -37 11 -45 18 -8 7 -26 16 -40 20 -14 4 -41 14 -60 22 -19 8 -50 21 -67 29
-62 27 -107 49 -117 59 -6 6 -27 18 -46 27 -19 10 -47 27 -62 40 -14 13 -35
30 -45 39 -47 40 -123 167 -123 205 0 8 -4 14 -8 14 -4 0 -13 15 -20 33 -15
41 -16 197 -2 197 6 0 10 9 10 19 0 11 5 23 10 26 5 3 10 15 10 25 0 10 3 20
8 22 4 2 19 22 35 46 15 23 32 42 37 42 6 0 10 7 10 15 0 21 28 62 72 106 21
21 38 40 38 44 0 10 28 35 39 35 6 0 11 5 11 10 0 19 74 80 97 80 25 0 43 -31
43 -73 0 -13 8 -30 18 -39 23 -23 42 -46 42 -53 0 -13 31 -37 53 -40 12 -1 27
-4 32 -5 23 -5 55 14 67 41 7 16 16 29 19 29 3 0 12 18 19 40 11 32 11 50 0
102 -7 35 -17 69 -23 76 -13 16 -4 88 17 143 13 33 26 48 54 61 37 18 55 28
104 60 15 10 32 18 37 18 6 0 36 16 68 35 32 19 66 35 76 35 9 0 17 3 17 8 0
4 15 13 33 20 17 7 50 21 72 31 22 10 55 22 72 25 18 4 35 12 38 17 4 5 17 9
30 9 13 0 27 5 30 10 3 6 16 10 28 10 12 0 35 7 51 15 15 8 44 15 62 15 19 0
34 5 34 10 0 6 9 10 20 10 11 0 28 4 38 9 31 16 88 31 116 31 15 0 42 7 59 16
18 9 40 21 49 25 10 5 36 9 58 9 22 0 40 5 40 10 0 6 9 10 19 10 11 0 22 4 25
9 3 4 23 11 43 14 21 4 56 16 78 27 21 11 54 20 72 20 18 0 33 5 33 10 0 6 7
10 15 10 8 0 23 4 33 9 9 5 33 16 52 24 19 8 65 29 102 46 36 17 73 31 81 31
7 0 25 9 38 21 13 11 36 23 51 26 14 3 36 14 47 24 11 11 24 19 30 19 5 0 38
16 73 35 34 19 77 42 93 49 17 8 39 23 50 33 11 11 49 36 85 57 94 53 103 59
120 77 24 25 53 39 75 36 16 -2 21 -11 23 -46z"/>
<path d="M10203 4560 c-69 -41 -107 -142 -94 -245 5 -45 9 -50 33 -53 19 -2
28 2 33 16 3 11 12 23 20 25 7 3 39 44 69 90 67 102 73 142 27 170 -37 22 -49
21 -88 -3z"/>
<path d="M5477 3599 l-37 -32 0 -96 c0 -53 -4 -101 -9 -106 -5 -6 -11 -35 -14
-65 -8 -93 -44 -190 -70 -190 -3 0 -23 -18 -46 -40 -75 -73 -47 -140 61 -140
32 0 58 3 58 8 0 4 21 21 45 37 25 17 45 38 45 48 0 9 3 17 8 17 4 0 15 20 25
45 11 25 23 45 28 45 5 0 9 14 9 31 0 37 31 69 60 62 11 -3 20 -9 20 -14 0 -5
7 -9 15 -9 8 0 15 -6 15 -13 0 -16 42 -57 58 -57 7 0 12 -4 12 -10 0 -5 9 -10
19 -10 11 0 21 -5 23 -12 5 -15 322 -13 347 2 13 8 12 9 -6 10 -13 0 -23 4
-23 8 0 5 -22 21 -50 36 -27 15 -50 31 -50 37 0 5 -7 9 -16 9 -15 0 -44 23
-44 35 0 12 -131 145 -143 145 -9 0 -37 26 -37 34 0 8 -50 56 -59 56 -4 0 -14
12 -22 28 -8 15 -22 36 -31 46 -10 11 -18 23 -18 28 0 4 -5 8 -10 8 -6 0 -22
11 -36 25 -36 36 -81 33 -127 -6z"/>
</g>
</svg>
